<svg id="Layer_1" data-name="Layer 1" xmlns="http://www.w3.org/2000/svg" viewBox="0 0 21.39 16.93"><defs><style>.cls-1{fill:none;}.cls-2{fill:#fedbb1;}</style></defs><title>heart beat</title><line class="cls-1" x1="3.66" y1="8.56" x2="6.53" y2="6.48"/><rect class="cls-2" y="8.73" width="4.8" height="0.79"/><rect class="cls-2" x="0.9" y="6.64" width="9.51" height="0.79" transform="translate(-2.67 9.44) rotate(-82.38)"/><rect class="cls-2" x="0.63" y="9.87" width="16.34" height="0.79" transform="translate(1.17 19.54) rotate(-108.03)"/><rect class="cls-2" x="6.95" y="11.76" width="12.97" height="0.79" transform="matrix(0.33, -0.95, 0.95, 0.33, -3.03, 18.62)"/><rect class="cls-2" x="13.56" y="8.13" width="5.79" height="0.79" transform="translate(13.1 24.58) rotate(-108.81)"/><rect class="cls-2" x="16.41" y="8.34" width="4.98" height="0.79"/><line class="cls-1" x1="3.66" y1="9.35" x2="6.53" y2="7.27"/><rect class="cls-2" y="9.06" width="5" height="0.74"/><rect class="cls-2" x="1.3" y="7.14" width="8.91" height="0.79" transform="translate(-3.07 9.96) rotate(-82.38)"/><rect class="cls-2" x="0.63" y="10.66" width="16.34" height="0.79" transform="translate(0.42 20.57) rotate(-108.03)"/><rect class="cls-2" x="6.95" y="12.55" width="12.97" height="0.79" transform="translate(-3.78 19.15) rotate(-70.98)"/><rect class="cls-2" x="13.78" y="8.6" width="5.14" height="0.79" transform="translate(12.5 25.11) rotate(-108.81)"/><rect class="cls-2" x="16.2" y="8.5" width="5.19" height="0.79"/></svg>