<?xml version="1.0" encoding="utf-8"?>
<!-- Generator: Adobe Illustrator 24.0.1, SVG Export Plug-In . SVG Version: 6.00 Build 0)  -->
<svg version="1.1" id="Layer_1" xmlns="http://www.w3.org/2000/svg" xmlns:xlink="http://www.w3.org/1999/xlink" x="0px" y="0px"
	 viewBox="0 0 24 9" style="enable-background:new 0 0 24 9;" xml:space="preserve">
<style type="text/css">
	.st0{fill:url(#SVGID_1_);}
	.st1{fill:url(#SVGID_2_);}
	.st2{fill:url(#SVGID_3_);}
	.st3{fill:url(#SVGID_4_);}
	.st4{fill:url(#SVGID_5_);}
	.st5{fill:url(#SVGID_6_);}
	.st6{fill:#8159E1;}
</style>
<g>
	<g>
		<linearGradient id="SVGID_1_" gradientUnits="userSpaceOnUse" x1="2.001953e-02" y1="5.0249" x2="21.7598" y2="5.0249">
			<stop  offset="0" style="stop-color:#4D56DE"/>
			<stop  offset="1" style="stop-color:#8159E1"/>
		</linearGradient>
		<path class="st0" d="M3.7,5.8c0,0.1,0,0.3-0.1,0.4C3.6,6.4,3.5,6.5,3.3,6.7S3,7,2.8,7C2.6,7.1,2.3,7.2,2,7.2c-0.2,0-0.4,0-0.6-0.1
			C1.3,7.1,1.1,7,0.9,6.9C0.8,6.8,0.7,6.7,0.5,6.6C0.4,6.4,0.3,6.3,0.3,6.1C0.2,6,0.1,5.8,0.1,5.6C0,5.4,0,5.2,0,5
			c0-0.3,0-0.6,0.1-0.9c0.1-0.3,0.2-0.5,0.4-0.7C0.8,3.3,1,3.1,1.2,3C1.5,2.9,1.7,2.9,2,2.9c0.3,0,0.6,0.1,0.9,0.2
			c0.3,0.1,0.5,0.3,0.6,0.5S3.7,4,3.7,4.1c0,0.1,0,0.2-0.1,0.3C3.6,4.5,3.5,4.5,3.4,4.5c-0.1,0-0.2,0-0.2-0.1S3,4.3,3,4.2
			C2.8,3.9,2.7,3.8,2.6,3.7C2.4,3.6,2.2,3.5,2,3.5c-0.3,0-0.6,0.1-0.8,0.4C1,4.2,0.9,4.6,0.9,5.1c0,0.3,0,0.6,0.1,0.8
			c0.1,0.2,0.2,0.4,0.4,0.5C1.6,6.5,1.8,6.5,2,6.5c0.2,0,0.4-0.1,0.6-0.2C2.8,6.2,2.9,6,3,5.8c0-0.1,0.1-0.2,0.1-0.3
			s0.1-0.1,0.3-0.1c0.1,0,0.2,0,0.3,0.1S3.7,5.7,3.7,5.8z"/>
		<linearGradient id="SVGID_2_" gradientUnits="userSpaceOnUse" x1="2.001953e-02" y1="5.0249" x2="21.7598" y2="5.0249">
			<stop  offset="0" style="stop-color:#4D56DE"/>
			<stop  offset="1" style="stop-color:#8159E1"/>
		</linearGradient>
		<path class="st1" d="M5.4,3.4v1.2h1.8V3.4c0-0.2,0-0.3,0.1-0.4c0.1-0.1,0.2-0.1,0.3-0.1c0.1,0,0.2,0,0.3,0.1C8,3.1,8,3.2,8,3.4
			v3.3C8,6.8,8,7,7.9,7.1C7.8,7.1,7.7,7.2,7.6,7.2c-0.1,0-0.2,0-0.3-0.1C7.2,7,7.2,6.8,7.2,6.7V5.3H5.4v1.4c0,0.2,0,0.3-0.1,0.4
			C5.2,7.1,5.1,7.2,4.9,7.2c-0.1,0-0.2,0-0.3-0.1C4.6,7,4.5,6.8,4.5,6.7V3.4c0-0.2,0-0.3,0.1-0.4c0.1-0.1,0.2-0.1,0.3-0.1
			c0.1,0,0.2,0,0.3,0.1C5.3,3.1,5.4,3.2,5.4,3.4z"/>
		<linearGradient id="SVGID_3_" gradientUnits="userSpaceOnUse" x1="2.001953e-02" y1="5.0249" x2="21.7598" y2="5.0249">
			<stop  offset="0" style="stop-color:#4D56DE"/>
			<stop  offset="1" style="stop-color:#8159E1"/>
		</linearGradient>
		<path class="st2" d="M11.7,3.6H9.8v1h1.8c0.1,0,0.2,0,0.3,0.1c0.1,0.1,0.1,0.1,0.1,0.2c0,0.1,0,0.2-0.1,0.2
			c-0.1,0.1-0.2,0.1-0.3,0.1H9.8v1.2h2c0.1,0,0.2,0,0.3,0.1s0.1,0.1,0.1,0.2c0,0.1,0,0.2-0.1,0.2s-0.2,0.1-0.3,0.1H9.5
			c-0.2,0-0.3,0-0.4-0.1C9,6.9,8.9,6.8,8.9,6.6V3.5c0-0.1,0-0.2,0.1-0.3C9,3.1,9.1,3,9.2,3c0.1,0,0.2-0.1,0.3-0.1h2.2
			c0.1,0,0.2,0,0.3,0.1c0.1,0.1,0.1,0.1,0.1,0.2c0,0.1,0,0.2-0.1,0.2S11.8,3.6,11.7,3.6z"/>
		<linearGradient id="SVGID_4_" gradientUnits="userSpaceOnUse" x1="2.001953e-02" y1="5.0249" x2="21.7598" y2="5.0249">
			<stop  offset="0" style="stop-color:#4D56DE"/>
			<stop  offset="1" style="stop-color:#8159E1"/>
		</linearGradient>
		<path class="st3" d="M14,5.3h-0.3v1.3c0,0.2,0,0.3-0.1,0.4c-0.1,0.1-0.2,0.1-0.3,0.1c-0.1,0-0.2,0-0.3-0.1
			c-0.1-0.1-0.1-0.2-0.1-0.4V3.5c0-0.2,0-0.3,0.1-0.4C13,3,13.2,2.9,13.3,2.9h1.4c0.2,0,0.4,0,0.5,0c0.1,0,0.3,0,0.4,0.1
			c0.1,0.1,0.2,0.1,0.3,0.2c0.1,0.1,0.2,0.2,0.2,0.4c0.1,0.1,0.1,0.3,0.1,0.4c0,0.3-0.1,0.6-0.3,0.7c-0.2,0.2-0.4,0.3-0.8,0.4
			c0.2,0.1,0.3,0.2,0.4,0.4c0.1,0.2,0.3,0.3,0.4,0.5s0.2,0.3,0.3,0.5c0.1,0.1,0.1,0.2,0.1,0.3c0,0.1,0,0.1-0.1,0.2
			c0,0.1-0.1,0.1-0.1,0.1s-0.1,0-0.2,0c-0.1,0-0.2,0-0.2-0.1c-0.1,0-0.1-0.1-0.2-0.2c0-0.1-0.1-0.2-0.2-0.3L15,6.1
			c-0.1-0.2-0.2-0.4-0.3-0.5c-0.1-0.1-0.2-0.2-0.3-0.2S14.1,5.3,14,5.3z M14.5,3.6h-0.8v1.1h0.8c0.2,0,0.4,0,0.5-0.1
			s0.2-0.1,0.3-0.2s0.1-0.2,0.1-0.3c0-0.1,0-0.2-0.1-0.3c-0.1-0.1-0.1-0.2-0.2-0.2C14.9,3.6,14.8,3.6,14.5,3.6z"/>
		<linearGradient id="SVGID_5_" gradientUnits="userSpaceOnUse" x1="2.001953e-02" y1="5.0249" x2="21.7598" y2="5.0249">
			<stop  offset="0" style="stop-color:#4D56DE"/>
			<stop  offset="1" style="stop-color:#8159E1"/>
		</linearGradient>
		<path class="st4" d="M17.1,6.7V3.4c0-0.2,0-0.3,0.1-0.4s0.2-0.1,0.3-0.1c0.1,0,0.2,0,0.3,0.1s0.1,0.2,0.1,0.4v3.3
			c0,0.2,0,0.3-0.1,0.4c-0.1,0.1-0.2,0.1-0.3,0.1c-0.1,0-0.2,0-0.3-0.1C17.1,7,17.1,6.8,17.1,6.7z"/>
		<linearGradient id="SVGID_6_" gradientUnits="userSpaceOnUse" x1="2.001953e-02" y1="5.0249" x2="21.7598" y2="5.0249">
			<stop  offset="0" style="stop-color:#4D56DE"/>
			<stop  offset="1" style="stop-color:#8159E1"/>
		</linearGradient>
		<path class="st5" d="M21.4,3.6h-1.7v1.1h1.4c0.1,0,0.2,0,0.3,0.1c0.1,0.1,0.1,0.1,0.1,0.2s0,0.2-0.1,0.2c-0.1,0.1-0.2,0.1-0.3,0.1
			h-1.4v1.4c0,0.2,0,0.3-0.1,0.4c-0.1,0.1-0.2,0.1-0.3,0.1c-0.1,0-0.2,0-0.3-0.1c-0.1-0.1-0.1-0.2-0.1-0.4V3.5c0-0.1,0-0.2,0.1-0.3
			C18.9,3.1,19,3,19.1,3s0.2-0.1,0.3-0.1h2c0.1,0,0.2,0,0.3,0.1c0.1,0.1,0.1,0.1,0.1,0.2c0,0.1,0,0.2-0.1,0.2S21.5,3.6,21.4,3.6z"/>
	</g>
</g>
<circle class="st6" cx="23.4" cy="0.9" r="0.6"/>
</svg>
