<?xml version="1.0" encoding="utf-8"?>
<!-- Generator: Adobe Illustrator 24.0.1, SVG Export Plug-In . SVG Version: 6.00 Build 0)  -->
<svg version="1.1" id="Layer_1" xmlns="http://www.w3.org/2000/svg" xmlns:xlink="http://www.w3.org/1999/xlink" x="0px" y="0px"
	 viewBox="0 0 30 9" style="enable-background:new 0 0 30 9;" xml:space="preserve">
<style type="text/css">
	.st0{fill:url(#SVGID_1_);}
	.st1{fill:url(#SVGID_2_);}
	.st2{fill:url(#SVGID_3_);}
	.st3{fill:url(#SVGID_4_);}
	.st4{fill:url(#SVGID_5_);}
	.st5{fill:url(#SVGID_6_);}
	.st6{fill:#8159E1;}
</style>
<g>
	<g>
		<linearGradient id="SVGID_1_" gradientUnits="userSpaceOnUse" x1="7.910156e-02" y1="6.1475" x2="27.1865" y2="6.1475">
			<stop  offset="0" style="stop-color:#4D56DE"/>
			<stop  offset="1" style="stop-color:#8159E1"/>
		</linearGradient>
		<path class="st0" d="M4.7,7.1c0,0.2,0,0.3-0.1,0.5C4.5,7.8,4.4,8,4.2,8.2C4,8.4,3.8,8.6,3.5,8.7S3,8.8,2.6,8.8
			c-0.3,0-0.5,0-0.8-0.1S1.4,8.6,1.2,8.5C1,8.4,0.9,8.3,0.7,8.1C0.6,7.9,0.5,7.7,0.4,7.5C0.3,7.3,0.2,7.1,0.2,6.9
			c0-0.2-0.1-0.5-0.1-0.7c0-0.4,0.1-0.8,0.2-1.1c0.1-0.3,0.3-0.6,0.5-0.9s0.5-0.4,0.8-0.5c0.3-0.1,0.6-0.2,1-0.2
			c0.4,0,0.8,0.1,1.1,0.3C4,3.9,4.3,4.1,4.4,4.3C4.6,4.6,4.7,4.8,4.7,5c0,0.1,0,0.2-0.1,0.3C4.5,5.4,4.4,5.5,4.3,5.5
			C4.1,5.5,4,5.5,4,5.4C3.9,5.3,3.8,5.2,3.7,5.1C3.6,4.8,3.4,4.6,3.3,4.5S2.8,4.3,2.6,4.3c-0.4,0-0.8,0.2-1,0.5
			C1.3,5.1,1.1,5.6,1.1,6.2c0,0.4,0.1,0.7,0.2,1c0.1,0.3,0.3,0.5,0.5,0.6S2.3,8,2.5,8c0.3,0,0.6-0.1,0.8-0.2s0.4-0.4,0.5-0.7
			c0-0.1,0.1-0.2,0.2-0.3s0.2-0.1,0.3-0.1c0.1,0,0.2,0,0.3,0.1C4.7,6.9,4.7,7,4.7,7.1z"/>
		<linearGradient id="SVGID_2_" gradientUnits="userSpaceOnUse" x1="7.910156e-02" y1="6.1475" x2="27.1865" y2="6.1475">
			<stop  offset="0" style="stop-color:#4D56DE"/>
			<stop  offset="1" style="stop-color:#8159E1"/>
		</linearGradient>
		<path class="st1" d="M6.7,4.1v1.5H9V4.1c0-0.2,0-0.4,0.1-0.5c0.1-0.1,0.2-0.2,0.4-0.2c0.2,0,0.3,0.1,0.4,0.2
			c0.1,0.1,0.1,0.3,0.1,0.5v4.1c0,0.2,0,0.4-0.1,0.5S9.7,8.8,9.5,8.8c-0.2,0-0.3-0.1-0.4-0.2C9.1,8.6,9,8.4,9,8.2V6.4H6.7v1.8
			c0,0.2,0,0.4-0.1,0.5S6.4,8.8,6.2,8.8C6,8.8,5.9,8.8,5.8,8.7C5.7,8.6,5.7,8.4,5.7,8.2V4.1c0-0.2,0-0.4,0.1-0.5
			C5.9,3.5,6,3.5,6.2,3.5c0.2,0,0.3,0.1,0.4,0.2C6.7,3.7,6.7,3.9,6.7,4.1z"/>
		<linearGradient id="SVGID_3_" gradientUnits="userSpaceOnUse" x1="7.910156e-02" y1="6.1475" x2="27.1865" y2="6.1475">
			<stop  offset="0" style="stop-color:#4D56DE"/>
			<stop  offset="1" style="stop-color:#8159E1"/>
		</linearGradient>
		<path class="st2" d="M14.6,4.4h-2.4v1.3h2.2c0.2,0,0.3,0,0.4,0.1c0.1,0.1,0.1,0.2,0.1,0.3s0,0.2-0.1,0.3c-0.1,0.1-0.2,0.1-0.4,0.1
			h-2.2v1.5h2.5c0.2,0,0.3,0,0.4,0.1c0.1,0.1,0.1,0.2,0.1,0.3c0,0.1,0,0.2-0.1,0.3c-0.1,0.1-0.2,0.1-0.4,0.1h-2.9
			c-0.2,0-0.4-0.1-0.5-0.2c-0.1-0.1-0.2-0.3-0.2-0.5V4.2c0-0.2,0-0.3,0.1-0.4s0.1-0.2,0.2-0.2c0.1,0,0.2-0.1,0.4-0.1h2.8
			c0.2,0,0.3,0,0.4,0.1c0.1,0.1,0.1,0.2,0.1,0.3c0,0.1,0,0.2-0.1,0.3C14.9,4.3,14.8,4.4,14.6,4.4z"/>
		<linearGradient id="SVGID_4_" gradientUnits="userSpaceOnUse" x1="7.910156e-02" y1="6.1475" x2="27.1865" y2="6.1475">
			<stop  offset="0" style="stop-color:#4D56DE"/>
			<stop  offset="1" style="stop-color:#8159E1"/>
		</linearGradient>
		<path class="st3" d="M17.5,6.5h-0.4v1.7c0,0.2,0,0.4-0.1,0.5s-0.2,0.2-0.4,0.2c-0.2,0-0.3-0.1-0.4-0.2c-0.1-0.1-0.1-0.3-0.1-0.5
			v-4c0-0.2,0.1-0.4,0.2-0.5c0.1-0.1,0.3-0.2,0.5-0.2h1.7c0.2,0,0.4,0,0.6,0c0.2,0,0.3,0.1,0.5,0.1c0.2,0.1,0.3,0.2,0.4,0.3
			c0.1,0.1,0.2,0.3,0.3,0.4c0.1,0.2,0.1,0.3,0.1,0.5c0,0.4-0.1,0.7-0.3,0.9c-0.2,0.2-0.6,0.4-1,0.5c0.2,0.1,0.4,0.2,0.5,0.4
			C19.7,7,19.8,7.2,20,7.5c0.1,0.2,0.2,0.4,0.3,0.6c0.1,0.2,0.1,0.3,0.1,0.4c0,0.1,0,0.1-0.1,0.2s-0.1,0.1-0.2,0.2S20,8.8,19.9,8.8
			c-0.1,0-0.2,0-0.3-0.1c-0.1-0.1-0.2-0.1-0.2-0.2s-0.1-0.2-0.2-0.4l-0.4-0.7c-0.2-0.3-0.3-0.5-0.4-0.6s-0.2-0.2-0.4-0.3
			C17.8,6.5,17.7,6.5,17.5,6.5z M18.1,4.3h-1v1.4h0.9c0.3,0,0.5,0,0.6-0.1c0.2,0,0.3-0.1,0.4-0.2c0.1-0.1,0.1-0.3,0.1-0.4
			c0-0.1,0-0.3-0.1-0.4c-0.1-0.1-0.2-0.2-0.3-0.2C18.7,4.4,18.4,4.3,18.1,4.3z"/>
		<linearGradient id="SVGID_5_" gradientUnits="userSpaceOnUse" x1="7.910156e-02" y1="6.1475" x2="27.1865" y2="6.1475">
			<stop  offset="0" style="stop-color:#4D56DE"/>
			<stop  offset="1" style="stop-color:#8159E1"/>
		</linearGradient>
		<path class="st4" d="M21.3,8.2V4.1c0-0.2,0-0.4,0.1-0.5c0.1-0.1,0.2-0.2,0.4-0.2c0.2,0,0.3,0.1,0.4,0.2s0.1,0.3,0.1,0.5v4.1
			c0,0.2,0,0.4-0.1,0.5S22,8.8,21.9,8.8c-0.2,0-0.3-0.1-0.4-0.2C21.4,8.6,21.3,8.4,21.3,8.2z"/>
		<linearGradient id="SVGID_6_" gradientUnits="userSpaceOnUse" x1="7.910156e-02" y1="6.1475" x2="27.1865" y2="6.1475">
			<stop  offset="0" style="stop-color:#4D56DE"/>
			<stop  offset="1" style="stop-color:#8159E1"/>
		</linearGradient>
		<path class="st5" d="M26.7,4.4h-2.1v1.3h1.7c0.2,0,0.3,0,0.4,0.1s0.1,0.2,0.1,0.3s0,0.2-0.1,0.3c-0.1,0.1-0.2,0.1-0.4,0.1h-1.7
			v1.7c0,0.2,0,0.4-0.1,0.5c-0.1,0.1-0.2,0.2-0.4,0.2c-0.2,0-0.3-0.1-0.4-0.2c-0.1-0.1-0.1-0.3-0.1-0.5v-4c0-0.2,0-0.3,0.1-0.4
			s0.1-0.2,0.2-0.2c0.1,0,0.2-0.1,0.4-0.1h2.5c0.2,0,0.3,0,0.4,0.1s0.1,0.2,0.1,0.3c0,0.1,0,0.2-0.1,0.3C27,4.3,26.9,4.4,26.7,4.4z"
			/>
	</g>
</g>
<circle class="st6" cx="29.2" cy="0.8" r="0.8"/>
</svg>
